<svg width="22" height="28" viewBox="0 0 22 28" fill="none" xmlns="http://www.w3.org/2000/svg">
<g id="accessibility">
<path id="combo shape" fill-rule="evenodd" clip-rule="evenodd" d="M12.9999 2.66663C12.9999 3.7712 12.1045 4.66663 10.9999 4.66663C9.89535 4.66663 8.99992 3.7712 8.99992 2.66663C8.99992 1.56206 9.89535 0.666626 10.9999 0.666626C12.1045 0.666626 12.9999 1.56206 12.9999 2.66663ZM12.3333 26C12.3333 26.7363 11.7363 27.3333 10.9999 27.3333C10.2635 27.3333 9.66658 26.7363 9.66658 26C9.66658 25.2636 10.2635 24.6666 10.9999 24.6666C11.7363 24.6666 12.3333 25.2636 12.3333 26ZM5.66658 27.3333C6.40296 27.3333 6.99992 26.7363 6.99992 26C6.99992 25.2636 6.40296 24.6666 5.66658 24.6666C4.93021 24.6666 4.33325 25.2636 4.33325 26C4.33325 26.7363 4.93021 27.3333 5.66658 27.3333ZM17.6666 26C17.6666 26.7363 17.0696 27.3333 16.3333 27.3333C15.5969 27.3333 14.9999 26.7363 14.9999 26C14.9999 25.2636 15.5969 24.6666 16.3333 24.6666C17.0696 24.6666 17.6666 25.2636 17.6666 26ZM0.695572 5.76047C0.827787 5.22425 1.36967 4.89673 1.90589 5.02895C5.48026 5.91027 8.19341 6.33445 10.911 6.3332C13.6306 6.33194 16.4047 5.90463 20.1022 5.02691C20.6395 4.89935 21.1786 5.23155 21.3061 5.7689C21.4337 6.30625 21.1015 6.84527 20.5641 6.97283C17.9613 7.5907 15.7523 8.00325 13.6666 8.19988V13.9396L14.6586 21.876C14.7271 22.4241 14.3384 22.9238 13.7904 22.9923C13.2424 23.0608 12.7426 22.6721 12.6741 22.1241L11.6586 14H10.3408L9.32531 22.1241C9.25681 22.6721 8.75702 23.0608 8.209 22.9923C7.66098 22.9238 7.27225 22.4241 7.34075 21.876L8.33325 13.936V8.21683C6.2223 8.0278 4.01802 7.60963 1.4271 6.97079C0.890871 6.83857 0.563357 6.2967 0.695572 5.76047Z" fill="#FFC040"/>
</g>
</svg>
