<svg width="28" height="28" viewBox="0 0 28 28" fill="none" xmlns="http://www.w3.org/2000/svg">
<g id="briefcase">
<g id="Subtract">
<path d="M1.36989 14.6249C1.03623 14.4892 0.666626 14.7317 0.666626 15.0919V22.5C0.666626 25.4455 3.05444 27.8333 5.99996 27.8333H22C24.9455 27.8333 27.3333 25.4455 27.3333 22.5V15.092C27.3333 14.7318 26.9637 14.4892 26.63 14.6249C24.9082 15.3251 22.6635 16.0618 20.0048 16.5449C19.0656 16.7155 18.3845 17.5227 17.9462 18.3707C17.2813 19.6571 15.9386 20.5365 14.3906 20.5365H13.6092C12.0612 20.5365 10.7185 19.6571 10.0536 18.3706C9.61527 17.5226 8.9342 16.7155 7.99503 16.5448C5.33637 16.0618 3.09169 15.3251 1.36989 14.6249Z" fill="#1AA6E1"/>
</g>
<path id="Subtract_2" fill-rule="evenodd" clip-rule="evenodd" d="M22 6.5H5.99996C3.05444 6.5 0.666626 8.88781 0.666626 11.8333C0.666626 12.1228 0.809857 12.3913 1.05985 12.5372C2.19033 13.1968 5.68969 15.0258 10.6642 15.6428V16.9188C10.6642 18.0234 11.5596 18.9188 12.6642 18.9188H15.3354C16.44 18.9188 17.3354 18.0234 17.3354 16.9188V15.6429C22.3101 15.0258 25.8096 13.1968 26.9401 12.5372C27.1901 12.3913 27.3333 12.1228 27.3333 11.8333C27.3333 8.88781 24.9455 6.5 22 6.5ZM12.7001 14.6258C12.5897 14.6258 12.5001 14.7154 12.5001 14.8258V16.4776C12.5001 16.9194 12.8583 17.2776 13.3001 17.2776H14.6997C15.1415 17.2776 15.4997 16.9194 15.4997 16.4776V14.8258C15.4997 14.7154 15.4101 14.6258 15.2997 14.6258H12.7001Z" fill="#1AA6E1"/>
<path id="Vector 994 (Stroke)" fill-rule="evenodd" clip-rule="evenodd" d="M12.6664 2.16663C11.0096 2.16663 9.66644 3.50977 9.66644 5.16663V6.49996C9.66644 7.05224 9.21873 7.49996 8.66644 7.49996C8.11416 7.49996 7.66644 7.05224 7.66644 6.49996V5.16663C7.66644 2.4052 9.90502 0.166626 12.6664 0.166626H15.3331C18.0945 0.166626 20.3331 2.4052 20.3331 5.16663V6.49996C20.3331 7.05224 19.8854 7.49996 19.3331 7.49996C18.7808 7.49996 18.3331 7.05224 18.3331 6.49996V5.16663C18.3331 3.50977 16.99 2.16663 15.3331 2.16663H12.6664Z" fill="#1AA6E1"/>
</g>
</svg>
