<svg width="28" height="28" viewBox="0 0 28 28" fill="none" xmlns="http://www.w3.org/2000/svg">
<g id="pixel grid-rectangle">
<path id="Union" fill-rule="evenodd" clip-rule="evenodd" d="M3.33341 0.666626C1.86066 0.666626 0.666748 1.86053 0.666748 3.33329V5.99996C0.666748 7.47272 1.86066 8.66663 3.33341 8.66663H3.66675V19.3333H3.33341C1.86066 19.3333 0.666748 20.5272 0.666748 22V24.6666C0.666748 26.1394 1.86066 27.3333 3.33341 27.3333H6.00008C7.47284 27.3333 8.66675 26.1394 8.66675 24.6666V24.3333H19.3334V24.6666C19.3334 26.1394 20.5273 27.3333 22.0001 27.3333H24.6667C26.1395 27.3333 27.3334 26.1394 27.3334 24.6666V22C27.3334 20.5272 26.1395 19.3333 24.6667 19.3333H24.3334V8.66663H24.6667C26.1395 8.66663 27.3334 7.47272 27.3334 5.99996V3.33329C27.3334 1.86053 26.1395 0.666626 24.6667 0.666626H22.0001C20.5273 0.666626 19.3334 1.86053 19.3334 3.33329V3.66663L8.66675 3.66663V3.33329C8.66675 1.86053 7.47284 0.666626 6.00008 0.666626H3.33341ZM8.66675 5.66663V5.99996C8.66675 7.47272 7.47284 8.66663 6.00008 8.66663H5.66675V19.3333H6.00008C7.47284 19.3333 8.66675 20.5272 8.66675 22V22.3333H19.3334V22C19.3334 20.5272 20.5273 19.3333 22.0001 19.3333H22.3334V8.66663H22.0001C20.5273 8.66663 19.3334 7.47272 19.3334 5.99996V5.66663L8.66675 5.66663Z" fill="#DFE2E7"/>
</g>
</svg>
