<svg width="32" height="32" viewBox="0 0 32 32" fill="none" xmlns="http://www.w3.org/2000/svg">
<path opacity="0.4" d="M2.66675 7.99999C2.66675 5.05447 5.05456 2.66666 8.00008 2.66666L24.0001 2.66666C26.9456 2.66666 29.3334 5.05447 29.3334 7.99999L29.3334 24C29.3334 26.9455 26.9456 29.3333 24.0001 29.3333L8.00008 29.3333C5.05456 29.3333 2.66675 26.9455 2.66675 24L2.66675 7.99999Z" fill="#B0B7C3"/>
<path d="M25.4147 15.8452L29.3334 18.6666V24C29.3334 26.9455 26.9456 29.3333 24.0001 29.3333L8.00008 29.3333C5.05456 29.3333 2.66675 26.9455 2.66675 24L2.66675 18.6666L6.58542 21.4881C8.62168 22.9542 11.4045 22.8026 13.2695 21.1241L18.7306 16.2091C20.5957 14.5306 23.3785 14.3791 25.4147 15.8452Z" fill="#B0B7C3"/>
<ellipse cx="11.3333" cy="11.3333" rx="3.33333" ry="3.33333" fill="#B0B7C3"/>
<path fill-rule="evenodd" clip-rule="evenodd" d="M25.3334 1.66666C25.8857 1.66666 26.3334 2.11437 26.3334 2.66666V8.25244L27.293 7.29288C27.6835 6.90236 28.3167 6.90236 28.7072 7.29288C29.0977 7.68341 29.0977 8.31657 28.7072 8.7071L26.9833 10.431C26.0721 11.3422 24.5947 11.3422 23.6835 10.431L21.9596 8.7071C21.5691 8.31657 21.5691 7.68341 21.9596 7.29288C22.3502 6.90236 22.9833 6.90236 23.3739 7.29288L24.3334 8.25244V2.66666C24.3334 2.11437 24.7811 1.66666 25.3334 1.66666Z" fill="#B0B7C3"/>
</svg>
