<svg width="32" height="32" viewBox="0 0 32 32" fill="none" xmlns="http://www.w3.org/2000/svg">
<path d="M16 28C17.8467 28 19.4178 26.887 20 25.3334H12C12.5822 26.887 14.1533 28 16 28Z" fill="#B0B7C3"/>
<path opacity="0.4" fill-rule="evenodd" clip-rule="evenodd" d="M18.2527 5.00537C17.6986 4.38821 16.8946 4 15.9999 4C14.3284 4 12.9733 5.35505 12.9733 7.0266V7.16488C10.1168 8.14292 8.00205 10.4675 7.68054 13.3002L7.08429 18.5537C6.9769 19.4998 6.57784 20.4021 5.9303 21.1628C4.4676 22.8812 5.85916 25.3333 8.297 25.3333H23.7028C26.1407 25.3333 27.5322 22.8812 26.0695 21.1628C25.422 20.4021 25.0229 19.4998 24.9156 18.5537L24.3193 13.3002C24.311 13.227 24.3015 13.1541 24.2908 13.0815C23.7787 13.2451 23.2329 13.3333 22.6666 13.3333C19.7211 13.3333 17.3333 10.9455 17.3333 8C17.3333 6.88993 17.6724 5.85906 18.2527 5.00537Z" fill="#B0B7C3"/>
<circle cx="22.6665" cy="8" r="4" fill="#38CB89"/>
</svg>
