<svg width="20" height="20" viewBox="0 0 20 20" fill="none" xmlns="http://www.w3.org/2000/svg">
<g clip-path="url(#clip0_1967_2977)">
<path fill-rule="evenodd" clip-rule="evenodd" d="M14.5899 3.62554C13.3164 2.70894 11.7975 2.1947 10.2291 2.14911C8.66072 2.10351 7.11459 2.52863 5.78997 3.3697C4.46536 4.21076 3.42296 5.42923 2.7971 6.86808C2.17124 8.30693 1.9906 9.90024 2.27845 11.4427C2.32588 11.7198 2.26248 12.0044 2.10194 12.2352C1.94139 12.466 1.69657 12.6245 1.42026 12.6764C1.14395 12.7283 0.858309 12.6696 0.624932 12.5128C0.391555 12.356 0.229148 12.1138 0.172737 11.8384C-0.199541 9.84605 0.0424687 7.78761 0.866685 5.93594C1.6909 4.08427 3.0584 2.52681 4.78791 1.47002C6.51742 0.413226 8.52726 -0.0929954 10.551 0.0184594C12.5748 0.129914 14.5169 0.853782 16.1199 2.09411L16.9942 1.21982C17.094 1.11976 17.2212 1.05155 17.3598 1.02384C17.4984 0.996126 17.6421 1.01015 17.7727 1.06414C17.9034 1.11813 18.015 1.20966 18.0936 1.32714C18.1722 1.44462 18.2141 1.58277 18.2142 1.72411V4.99982C18.2142 5.18926 18.1389 5.37094 18.005 5.5049C17.871 5.63885 17.6893 5.71411 17.4999 5.71411H14.2242C14.0831 5.7138 13.9453 5.67174 13.8282 5.59323C13.711 5.51472 13.6197 5.40328 13.5657 5.27295C13.5118 5.14263 13.4977 4.99926 13.5251 4.86091C13.5525 4.72256 13.6203 4.59542 13.7199 4.49554L14.5899 3.62554ZM18.577 7.30696C18.8563 7.2543 19.145 7.31472 19.3797 7.47493C19.6144 7.63514 19.7758 7.88202 19.8285 8.16125C20.201 10.1538 19.9592 12.2126 19.1349 14.0646C18.3107 15.9166 16.943 17.4742 15.2132 18.5311C13.4834 19.588 11.4732 20.0941 9.44915 19.9824C7.42512 19.8707 5.48285 19.1464 3.87988 17.9055L3.00559 18.7813C2.9057 18.8814 2.77831 18.9496 2.63958 18.9773C2.50085 19.005 2.35704 18.9908 2.22636 18.9367C2.09568 18.8825 1.98403 18.7907 1.90557 18.673C1.8271 18.5553 1.78534 18.417 1.78559 18.2755V14.9998C1.78559 14.8104 1.86085 14.6287 1.9948 14.4947C2.12876 14.3608 2.31044 14.2855 2.49988 14.2855H5.77559C5.91705 14.2853 6.0554 14.327 6.1731 14.4055C6.2908 14.484 6.38255 14.5956 6.43672 14.7263C6.49088 14.857 6.50503 15.0008 6.47736 15.1395C6.4497 15.2782 6.38146 15.4056 6.28131 15.5055L5.40988 16.3755C6.68339 17.2921 8.20222 17.8064 9.77063 17.852C11.339 17.8976 12.8852 17.4724 14.2098 16.6314C15.5344 15.7903 16.5768 14.5718 17.2027 13.133C17.8285 11.6941 18.0092 10.1008 17.7213 8.55839C17.6953 8.41993 17.6968 8.27769 17.7258 8.13981C17.7548 8.00194 17.8107 7.87113 17.8903 7.75489C17.9699 7.63865 18.0717 7.53926 18.1898 7.46239C18.3079 7.38553 18.4399 7.33272 18.5785 7.30696H18.577ZM10.8956 5.22411C10.8956 4.93995 10.7827 4.66742 10.5818 4.46649C10.3808 4.26556 10.1083 4.15268 9.82417 4.15268C9.54 4.15268 9.26748 4.26556 9.06655 4.46649C8.86562 4.66742 8.75274 4.93995 8.75274 5.22411V5.71411C8.19423 5.80651 7.68538 6.09069 7.31376 6.51774C6.94213 6.94478 6.73097 7.488 6.71659 8.05392C6.70221 8.61985 6.88553 9.17309 7.23499 9.61845C7.58445 10.0638 8.07821 10.3735 8.63131 10.4941L10.4313 10.887C10.538 10.914 10.6314 10.9787 10.6943 11.0692C10.7571 11.1596 10.7852 11.2696 10.7734 11.3791C10.7616 11.4886 10.7107 11.5902 10.63 11.6651C10.5493 11.74 10.4442 11.7833 10.3342 11.787H9.31417C9.22027 11.7866 9.12877 11.7573 9.05209 11.7032C8.97542 11.649 8.91728 11.5725 8.88559 11.4841C8.83869 11.3514 8.76611 11.2292 8.67199 11.1245C8.57786 11.0198 8.46404 10.9347 8.33702 10.874C8.21001 10.8133 8.07228 10.7783 7.93171 10.7708C7.79113 10.7633 7.65047 10.7836 7.51774 10.8305C7.38501 10.8774 7.26282 10.95 7.15814 11.0441C7.05346 11.1383 6.96835 11.2521 6.90766 11.3791C6.84697 11.5061 6.81189 11.6439 6.80443 11.7844C6.79697 11.925 6.81727 12.0657 6.86417 12.1984C7.01139 12.614 7.2618 12.9855 7.59189 13.2778C7.92198 13.5702 8.32093 13.7739 8.75131 13.8698V14.387C8.75131 14.6711 8.86419 14.9436 9.06512 15.1446C9.26605 15.3455 9.53858 15.4584 9.82274 15.4584C10.1069 15.4584 10.3794 15.3455 10.5804 15.1446C10.7813 14.9436 10.8942 14.6711 10.8942 14.387V13.8698C11.4712 13.7405 11.987 13.4183 12.3563 12.9564C12.7256 12.4945 12.9264 11.9205 12.9256 11.3291C12.9247 10.7377 12.7223 10.1643 12.3517 9.70342C11.9811 9.24256 11.4645 8.92182 10.887 8.79411L9.08702 8.39982C9.01718 8.38407 8.95558 8.34316 8.91397 8.28489C8.87236 8.22662 8.85366 8.15508 8.86143 8.0839C8.8692 8.01273 8.9029 7.9469 8.9561 7.89899C9.0093 7.85107 9.07828 7.82442 9.14988 7.82411H10.3327C10.4268 7.82363 10.5187 7.85256 10.5956 7.90686C10.6724 7.96116 10.7303 8.03812 10.7613 8.12696C10.856 8.39502 11.0534 8.61447 11.3099 8.73704C11.4369 8.79773 11.5746 8.83281 11.7152 8.84027C11.8558 8.84774 11.9964 8.82744 12.1292 8.78054C12.2619 8.73364 12.3841 8.66105 12.4888 8.56693C12.5934 8.4728 12.6786 8.35898 12.7392 8.23197C12.7999 8.10495 12.835 7.96722 12.8425 7.82665C12.8499 7.68608 12.8296 7.54541 12.7827 7.41268C12.6359 6.99659 12.3854 6.62478 12.0549 6.33234C11.7245 6.0399 11.325 5.83647 10.8942 5.74125V5.22696L10.8956 5.22411Z" fill="black"/>
</g>
<defs>
<clipPath id="clip0_1967_2977">
<rect width="20" height="20" fill="white"/>
</clipPath>
</defs>
</svg>
