<svg width="24" height="24" viewBox="0 0 24 24" fill="none" xmlns="http://www.w3.org/2000/svg">
<g id="user">
<path id="combo shape" fill-rule="evenodd" clip-rule="evenodd" d="M9.33333 10.6667C12.2789 10.6667 14.6667 8.27885 14.6667 5.33333C14.6667 2.38781 12.2789 0 9.33333 0C6.38781 0 4 2.38781 4 5.33333C4 8.27885 6.38781 10.6667 9.33333 10.6667ZM9.33333 24C14.488 24 18.6667 21.6122 18.6667 18.6667C18.6667 15.7211 14.488 13.3333 9.33333 13.3333C4.17868 13.3333 0 15.7211 0 18.6667C0 21.6122 4.17868 24 9.33333 24ZM14.6152 10.4206C15.8855 9.10203 16.6667 7.30896 16.6667 5.33344C16.6667 4.39398 16.49 3.49578 16.1681 2.67025C18.2992 2.75839 19.9999 4.51398 19.9999 6.66678C19.9999 8.87591 18.2091 10.6668 15.9999 10.6668C15.5132 10.6668 15.0467 10.5798 14.6152 10.4206ZM20.6665 18.6666C20.6665 19.385 20.5069 20.0793 20.2093 20.7354C22.4845 20.0301 23.9999 18.7702 23.9999 17.3332C23.9999 15.325 21.0399 13.6624 17.1823 13.3766C19.3298 14.7111 20.6665 16.5878 20.6665 18.6666Z" fill="#377DFF"/>
</g>
</svg>
