<svg width="28" height="29" viewBox="0 0 28 29" fill="none" xmlns="http://www.w3.org/2000/svg">
<g id="video call">
<path id="Combo shape" fill-rule="evenodd" clip-rule="evenodd" d="M4.66663 0.666626C2.45749 0.666626 0.666626 2.45748 0.666626 4.66662V19.3333C0.666626 21.5424 2.45748 23.3333 4.66662 23.3333H13V26.3333H9.99996C9.44767 26.3333 8.99996 26.781 8.99996 27.3333C8.99996 27.8856 9.44767 28.3333 9.99996 28.3333H18C18.5522 28.3333 19 27.8856 19 27.3333C19 26.781 18.5522 26.3333 18 26.3333H15V23.3333H23.3333C25.5424 23.3333 27.3333 21.5424 27.3333 19.3333V4.66663C27.3333 2.45749 25.5424 0.666626 23.3333 0.666626H4.66663ZM14 5.99996C15.4727 5.99996 16.6666 7.19387 16.6666 8.66663C16.6666 10.1394 15.4727 11.3333 14 11.3333C12.5272 11.3333 11.3333 10.1394 11.3333 8.66663C11.3333 7.19387 12.5272 5.99996 14 5.99996ZM8.66663 16C8.66663 14.8954 9.56206 14 10.6666 14H17.3333C18.4379 14 19.3333 14.8954 19.3333 16C19.3333 17.1045 18.4379 18 17.3333 18H10.6666C9.56206 18 8.66663 17.1045 8.66663 16Z" fill="#38CB89"/>
</g>
</svg>
